<svg id="Левая" xmlns="http://www.w3.org/2000/svg" xmlns:xlink="http://www.w3.org/1999/xlink" width="16.819" height="19.938" viewBox="0 0 16.819 19.938">
  <defs>
    <style>
      .cls-1 {
        fill: url(#pattern);
      }

      .cls-2, .cls-5 {
        fill: #fff;
      }

      .cls-3 {
        fill: none;
        stroke-linejoin: round;
      }

      .cls-4, .cls-5 {
        stroke: none;
      }
    </style>
    <pattern id="pattern" preserveAspectRatio="none" width="100%" height="100%" viewBox="0 0 0 0">
      <image/>
    </pattern>
  </defs>
  <rect id="Слой_2" data-name="Слой 2" class="cls-1"/>
  <g id="Группа_1" data-name="Группа 1">
    <g id="Группа_1-2" data-name="Группа 1">
      <path id="Фигура_2" data-name="Фигура 2" class="cls-2" d="M8.5,3.422,2.6,9.062v8.46H8.5Z"/>
      <path id="Фигура_2_копия_2" data-name="Фигура 2 копия 2" class="cls-2" d="M8.5,3.422l5.9,5.64v8.46H8.5Z"/>
    </g>
    <g id="Stroke_Effect" data-name="Stroke Effect" class="cls-3">
      <path class="cls-4" d="M8.5,17.522V3.422l5.9,5.64v8.46Zm-5.9,0V9.062l5.9-5.64v14.1Z"/>
      <path class="cls-5" d="M 14.40364265441895 17.52212333679199 L 14.40364265441895 9.06196403503418 L 8.500012397766113 3.421803951263428 L 8.500012397766113 17.52212333679199 L 14.40364265441895 17.52212333679199 M 8.500012397766113 17.52212333679199 L 8.500012397766113 3.421803951263428 L 2.59638237953186 9.06196403503418 L 2.59638237953186 17.52212333679199 L 8.500012397766113 17.52212333679199 M 14.40364265441895 19.93777465820313 L 8.500012397766113 19.93777465820313 L 2.59638237953186 19.93777465820313 C 1.262262344360352 19.93777465820313 0.180732399225235 18.85624313354492 0.180732399225235 17.52212333679199 L 0.180732399225235 9.06196403503418 C 0.180732399225235 8.40217399597168 0.4506123960018158 7.771093845367432 0.9276823997497559 7.315313816070557 L 6.817670345306396 1.688187122344971 C 6.927611827850342 1.581458568572998 7.048248767852783 1.484678626060486 7.178364276885986 1.399670600891113 C 7.349533557891846 1.287752151489258 7.532854080200195 1.199025988578796 7.723414421081543 1.134364724159241 C 7.976874351501465 1.048233032226563 8.239042282104492 1.006101608276367 8.499499320983887 1.006101608276367 C 8.499669075012207 1.006101608276367 8.499841690063477 1.006101965904236 8.500012397766113 1.006101965904236 C 8.50018310546875 1.006101965904236 8.50035572052002 1.006101608276367 8.50052547454834 1.006101608276367 C 8.752918243408203 1.006101608276367 9.00672435760498 1.045616507530212 9.252852439880371 1.126424908638 C 9.253122329711914 1.126513242721558 9.253411293029785 1.126607894897461 9.253680229187012 1.126696348190308 C 9.253846168518066 1.126750946044922 9.254123687744141 1.126842260360718 9.254290580749512 1.126896858215332 C 9.459959030151367 1.194448471069336 9.65736198425293 1.289887309074402 9.840588569641113 1.412164449691772 C 9.963496208190918 1.49412202835083 10.0777587890625 1.586648464202881 10.18235397338867 1.688187122344971 L 16.07234191894531 7.315313816070557 C 16.54941177368164 7.771093845367432 16.81929206848145 8.40217399597168 16.81929206848145 9.06196403503418 L 16.81929206848145 17.52212333679199 C 16.81929206848145 18.85624313354492 15.73776245117188 19.93777465820313 14.40364265441895 19.93777465820313 Z"/>
    </g>
  </g>
  <path id="Фигура_3" data-name="Фигура 3" class="cls-2" d="M.989,7.257,8.531,0V6.3Z"/>
  <path id="Фигура_3_копия" data-name="Фигура 3 копия" class="cls-2" d="M16.073,7.316,8.531.059v6.3Z"/>
</svg>
