<?xml version="1.0" encoding="UTF-8" standalone="no"?>
<svg
   xmlns="http://www.w3.org/2000/svg"
   id="svg8"
   version="1.1"
   viewBox="0 0 343.94785 343.67478"
   height="343.67477mm"
   width="343.94785mm">
  <g
     transform="translate(958.75205,38.556688)"
     id="layer1">
    <path
       id="path4617"
       d="m -795.47711,304.9118 c -7.91723,-1.00348 -17.64893,-3.4734 -50.39683,-12.79078 -25.63083,-7.29244 -38.2734,-11.20926 -42.1252,-13.05088 -15.85005,-7.57824 -26.9647,-22.62142 -29.74714,-40.26143 -0.39683,-2.51585 -0.69109,-17.49485 -0.69401,-35.32856 l -0.005,-30.96084 -16.48584,-5.30194 c -17.94423,-5.77097 -20.28896,-7.02024 -22.55973,-12.01985 -1.50171,-3.30636 -1.61029,-7.00831 -0.2977,-10.14978 0.53581,-1.28237 9.38045,-13.38303 19.65476,-26.89036 10.27432,-13.50734 18.76388,-24.922137 18.8657,-25.366233 0.10182,-0.444097 -8.41056,-11.499488 -18.9164,-24.567546 -20.04548,-24.934279 -21.22128,-26.779348 -20.37779,-31.977135 0.57988,-3.573397 2.45967,-6.999024 4.83475,-8.810585 3.18745,-2.431191 57.37574,-17.9541128 61.28112,-17.5547556 4.64198,0.4746786 8.56135,3.2438586 10.65875,7.5308176 2.05225,4.19464 2.04312,7.605774 -0.0321,11.978888 -2.15038,4.531609 -4.44993,5.633714 -22.70703,10.882845 -10.73594,3.086705 -16.87445,5.162013 -16.757,5.665195 0.10194,0.436739 6.87115,9.089659 15.04268,19.228707 14.64508,18.171281 14.90642,18.448806 18.29349,19.426417 58.26738,16.817775 99.85359,28.562555 101.18506,28.576715 0.93546,0.01 24.80737,-6.56671 53.04868,-14.614785 l 51.34786,-14.632866 15.37847,-19.082959 c 8.45817,-10.49563 15.13616,-19.309188 14.83999,-19.585679 -0.29619,-0.27649 -7.79565,-2.528247 -16.66549,-5.003894 -9.10768,-2.542036 -17.18773,-5.184785 -18.56407,-6.071769 -5.46572,-3.522395 -7.37554,-11.417485 -4.22165,-17.452058 1.72841,-3.307109 6.52249,-6.430827 10.49447,-6.8379654 3.96775,-0.4067064 58.11487,15.0806354 61.34863,17.5471464 4.41336,3.366229 6.11195,10.181385 3.82573,15.349761 -0.74885,1.692897 -9.45148,13.153135 -19.33919,25.467196 -9.8877,12.314061 -18.24286,22.738719 -18.56701,23.165896 -0.38974,0.513597 5.82386,9.377676 18.34405,26.168906 10.41338,13.96572 19.34702,26.38209 19.85253,27.59194 2.08049,4.97932 0.15652,11.49128 -4.45656,15.08387 -1.77093,1.37918 -16.45989,6.3621 -59.46826,20.17335 -61.90731,19.88025 -61.7423,19.83855 -67.19576,16.98306 -2.43452,-1.27475 -10.19292,-11.26607 -25.51817,-32.86247 -0.82677,-1.16509 -0.95836,6.23401 -0.98892,55.6045 -0.0292,47.27648 0.11827,56.94841 0.86864,56.94841 1.91825,0 74.01521,-20.97264 76.5601,-22.27095 3.55299,-1.8126 8.7737,-6.75266 10.80308,-10.22234 2.12786,-3.63806 3.79114,-9.34477 3.79114,-13.0074 0,-5.22746 3.10688,-10.3706 7.72751,-12.79216 1.12245,-0.58825 3.65381,-1.05647 5.71164,-1.05647 4.09819,0 6.80362,1.14029 9.53975,4.02081 3.75105,3.949 4.5732,8.32315 3.20032,17.02692 -2.0523,13.01102 -8.83444,25.08131 -18.73775,33.34788 -8.16731,6.81748 -12.94474,8.62884 -52.79861,20.0186 -19.95715,5.70351 -38.85596,10.86736 -41.99736,11.47521 -5.57107,1.07799 -22.17684,1.8573 -26.8783,1.2614 z m -4.70371,-85.0507 v -57.24921 l -6.38651,8.70027 c -3.51258,4.78514 -9.06641,12.35089 -12.34184,16.81277 -4.4722,6.09213 -6.60515,8.42134 -8.56455,9.35259 -5.46758,2.5986 -6.5445,2.38305 -36.2071,-7.24709 l -27.55026,-8.94436 -0.17582,26.54655 c -0.19389,29.27394 -0.023,30.8758 3.96326,37.14026 2.54128,3.99372 7.13331,8.23623 10.81592,9.99268 2.30535,1.09956 74.13288,22.01819 75.94293,22.11718 0.27719,0.0152 0.50397,-25.73458 0.50397,-57.22164 z m -25.52033,-67.78896 c 7.07798,-9.63872 12.71152,-17.68247 12.51899,-17.87501 -0.33409,-0.33408 -83.65965,-24.39597 -84.50194,-24.40159 -0.513,-0.003 -25.17025,32.4217 -25.01172,32.89126 0.0645,0.19104 11.2526,3.9296 24.86243,8.3079 13.60984,4.3783 32.00231,10.32486 40.87215,13.21459 8.86984,2.88973 16.6364,5.28414 17.25902,5.32091 0.73865,0.0436 5.60404,-6.02305 14.00107,-17.45806 z m 124.33606,7.08032 c 17.9036,-5.74453 36.48295,-11.67498 41.28745,-13.17878 4.80449,-1.50379 8.94475,-2.92693 9.20056,-3.16253 0.43864,-0.40398 -23.18709,-32.49173 -24.18722,-32.85036 -0.53007,-0.19007 -84.80954,23.80902 -85.28632,24.2858 -0.44172,0.44172 -0.37114,0.54496 12.83495,18.77196 6.60644,9.11819 12.36876,16.57852 12.80515,16.57852 0.43638,0 15.44183,-4.70007 33.34543,-10.44461 z m -90.04858,-67.035415 c -3.31441,-1.056613 -7.02545,-5.035765 -7.99936,-8.577257 -0.62021,-2.255332 -0.77179,-16.25434 -0.62525,-57.741659 0.18418,-52.143029 0.25426,-54.886989 1.46393,-57.322321 2.61648,-5.267546 9.20065,-8.168313 15.01231,-6.613929 4.05191,1.08372 7.04094,3.368367 8.65306,6.613929 1.20967,2.435332 1.27975,5.179292 1.46393,57.322321 0.14654,41.487319 -0.005,55.486327 -0.62525,57.741659 -1.93932,7.052142 -9.85208,10.965442 -17.34337,8.577257 z m -53.75662,-13.439153 c -3.31369,-1.056385 -7.02529,-5.035732 -8.00014,-8.577258 -0.61807,-2.245346 -0.77175,-14.786334 -0.62526,-51.022082 0.18415,-45.550428 0.2602,-48.177776 1.46473,-50.602744 1.61212,-3.245562 4.60115,-5.530209 8.65305,-6.613929 5.81167,-1.554384 12.39584,1.346383 15.01232,6.613929 1.20452,2.424968 1.28057,5.052316 1.46472,50.602744 0.1465,36.235748 -0.007,48.776736 -0.62525,51.022082 -1.94134,7.05266 -9.85321,10.965335 -17.34417,8.577258 z m 107.51323,0 c -3.31369,-1.056385 -7.02529,-5.035732 -8.00015,-8.577258 -0.61806,-2.245346 -0.77175,-14.786334 -0.62525,-51.022082 0.18415,-45.550428 0.2602,-48.177776 1.46472,-50.602744 2.61648,-5.267546 9.20065,-8.168313 15.01232,-6.613929 4.0519,1.08372 7.04093,3.368367 8.65305,6.613929 1.20453,2.424968 1.28058,5.052316 1.46473,50.602744 0.14649,36.235748 -0.007,48.776736 -0.62526,51.022082 -1.94134,7.05266 -9.8532,10.965335 -17.34416,8.577258 z"
       style="stroke-width:0.67195767" />
  </g>
</svg>
