<?xml version="1.0" encoding="UTF-8" standalone="no"?>
<svg
        xmlns="http://www.w3.org/2000/svg"
        id="svg8"
        version="1.1"
        viewBox="0 0 960.54926 960.72814"
        height="960.72815mm"
        width="960.54926mm">
  <g
          transform="translate(625.23599,260.10703)"
          id="layer1">
    <path
            id="path4554"
            d="m -558.15852,700.27654 c -30.86289,-4.17427 -56.99686,-27.35294 -65.10861,-57.74609 l -1.96886,-7.37692 V 506.3648 377.57607 l 2.46553,-7.85998 c 8.04835,-25.65779 25.67622,-44.01505 50.53146,-52.6223 l 8.71428,-3.01772 128.34155,-0.25017 c 114.99825,-0.22416 129.08545,-0.10065 135.49645,1.18798 29.4491,5.91931 53.7957,30.17258 59.8473,59.61779 1.2534,6.09847 1.4168,21.38572 1.4168,132.53133 0,137.95109 0.2567,131.08316 -5.43,145.28507 -5.2717,13.16552 -16.271,26.88134 -28.064,34.99512 -5.9485,4.09262 -16.0092,8.65496 -24.1926,10.97074 l -7.1549,2.02476 -126.10567,0.10035 c -69.3581,0.0554 -127.31303,-0.0626 -128.78873,-0.2625 z m 569.830104,-0.76513 c -26.7809,-5.36745 -47.978,-22.67996 -57.7989,-47.20644 -5.6205,-14.03645 -5.3727,-7.34408 -5.3727,-145.14197 0,-111.14561 0.1634,-126.43286 1.4167,-132.53133 6.0271,-29.32595 30.2601,-53.55893 59.5859996,-59.586 6.1011004,-1.2539 21.3700004,-1.41499 132.8133964,-1.40126 137.5947,0.017 130.9139,-0.22707 144.6794,5.28491 22.2107,8.89357 38.302,26.71659 45.8523,50.78677 l 2.4655,7.85998 V 506.3648 635.15353 l -1.9688,7.37692 c -7.2106,27.01656 -27.8777,47.85914 -55.3795,55.84968 l -7.046,2.0472 -126.5529,0.1575 C 40.023384,700.71478 16.735484,700.52673 11.671584,699.51141 Z M -564.65766,125.29887 c -27.61976,-6.05084 -49.2401,-26.39392 -58.1128,-54.679726 l -2.46553,-7.859976 V -66.029562 -194.81829 l 1.96886,-7.3769 c 7.28867,-27.30918 28.67485,-48.656 56.08114,-55.97792 l 7.23874,-1.93392 h 128.78873 128.7887 l 7.86,2.46553 c 23.9909,7.52549 41.897,23.65107 50.7145,45.67177 5.6204,14.03642 5.3727,7.34406 5.3727,145.141968 0,111.145608 -0.1634,126.432858 -1.4168,132.531326 -6.027,29.325956 -30.26,53.558936 -59.586,59.586006 -6.1123,1.2562 -21.2165,1.4066 -133.26054,1.32698 -103.55446,-0.0736 -127.37873,-0.31147 -131.9717,-1.31768 z m 573.5273436,-0.077 C -15.028016,120.11194 -36.405816,102.13615 -45.960116,79.117515 c -5.7822,-13.930558 -5.5399,-7.549837 -5.5399,-145.945267 0,-137.797908 -0.2478,-131.105548 5.3727,-145.141968 8.8175,-22.0207 26.7235,-38.14628 50.7144996,-45.67177 l 7.8599004,-2.46553 h 128.788796 128.7887 l 7.2387,1.93392 c 27.4064,7.32192 48.7925,28.66874 56.0812,55.97792 l 1.9688,7.3769 V -66.029562 62.759172 l -2.4655,7.859976 c -8.9766,28.617012 -30.6762,48.829932 -58.7646,54.738512 -9.588,2.0169 -255.735396,1.89087 -265.2134964,-0.1358 z"
            style="stroke-width:0.8943662"/>
  </g>
</svg>
