<?xml version="1.0" encoding="utf-8"?>
<!-- Generator: Adobe Illustrator 24.1.2, SVG Export Plug-In . SVG Version: 6.00 Build 0)  -->
<svg version="1.1" id="Layer_1" xmlns="http://www.w3.org/2000/svg" x="0px"
     y="0px"
     viewBox="0 0 512 512" style="enable-background:new 0 0 512 512;" xml:space="preserve">
<style type="text/css">
	.crypto-0{fill:#6D7681}
	.crypto-1{fill:#272E3D}
</style>
    <path class="crypto-0" d="M510.6,256c0,141.4-114.6,256-256,256C113.3,512-1.3,397.4-1.3,256C-1.3,114.6,113.3,0,254.7,0
	S510.6,114.6,510.6,256L510.6,256z"/>
    <g>
	<path class="crypto-1" d="M355.4,193.3c-3.3-34.3-32.9-45.8-70.3-49.1V96.7h-28.9V143c-7.6,0-15.4,0.1-23.1,0.3V96.7h-28.9l0,47.5
		c-6.3,0.1-12.4,0.2-18.4,0.2v-0.1l-39.9,0v30.9c0,0,21.4-0.4,21,0c11.7,0,15.5,6.8,16.7,12.7v54.2c0.8,0,1.9,0,3.1,0.2h-3.1l0,75.9
		c-0.5,3.7-2.7,9.6-10.9,9.6c0.4,0.3-21,0-21,0l-5.8,34.6h37.7c7,0,13.9,0.1,20.7,0.2l0,48.1H233V363c7.9,0.2,15.6,0.2,23.1,0.2
		l0,47.4H285v-48c48.7-2.8,82.8-15.1,87-60.8c3.4-36.8-13.9-53.3-41.5-59.9C347.3,233.4,357.8,218.4,355.4,193.3L355.4,193.3z
		 M314.9,296.2c0,35.9-61.5,31.9-81.2,31.9v-63.8C253.3,264.3,314.9,258.7,314.9,296.2z M301.4,206.2c0,32.7-51.4,28.9-67.7,28.9
		v-57.8C250,177.3,301.4,172.1,301.4,206.2z"/>
        <path class="st1" d="M183.4,240.8h4.3v3.2h-4.3V240.8z"/>
</g>
</svg>
