<?xml version="1.0" encoding="utf-8"?>
<!-- Generator: Adobe Illustrator 24.1.2, SVG Export Plug-In . SVG Version: 6.00 Build 0)  -->
<svg version="1.1" id="Layer_1" xmlns="http://www.w3.org/2000/svg" xmlns:xlink="http://www.w3.org/1999/xlink" x="0px" y="0px"
	 viewBox="0 0 512 512" style="enable-background:new 0 0 512 512;" xml:space="preserve">
<style type="text/css">
	.csgo-0{fill:#4A99EB;}
</style>
<path class="csgo-0" d="M212.5,4.2h13.5c9.4,3.7,18.4,8.8,26.6,14.6c2.6,11.1,7.2,22.8,3.2,34.1c-3.4,3.1-8,4.4-12,6.3
	c0.5,4.4,1.2,8.7,1.9,13c7.7-0.6,15.2-2.7,22.7-4.1c1-4.5,1.3-9.4,4.1-13.2c0.6,3,1.1,6.1,1.5,9.2c4,2.4,8,5.7,13,5.2
	c31.7,0,63.3-0.1,95,0c3.5-0.3,5.1,3.4,7.5,5.3c0.1-6.7,0-13.5,0.3-20.2c0.9,0,2.8,0.1,3.7,0.1c0.2,5.9-0.4,12,1.2,17.7
	c1.8,0.4,3.6,0.5,5.4,0.8c0.1,2.3,0.2,4.6,0.3,6.9c9.7,0.3,19.6,0.9,29.2-0.7c6.5-1,13.1-0.3,19.6-0.3c0.1,2.3,0.3,4.6,0.7,6.9
	c-8.1,0.6-16.3,1.1-24.3-0.2C412.8,84,400,86.7,387.1,86c-0.4,1.7-0.8,3.5-1.3,5.2c-12.4,0.1-24.7-0.1-37.1,0
	c-4.1-0.1-8.6,0.8-11.2,4.2c-3.6,4.5-8,8.4-11.5,13.1c-1.1,8.5,2.2,16.8,4.1,25c-2.9,1.1-5.8,2.1-8.7,3.1c-2.9,9.2-1.8,21-10.2,27.5
	c-4.7,3.5-8.8,7.9-14.1,10.3c-3.9,1.7-8-0.1-11.9-0.6c-14.5-2.2-26.6-11.1-39.5-17.3c-0.8,3.5-1.8,7-2.7,10.5
	c3.9,2.5,9,4.7,10.3,9.7c2,7.3,0.3,15,0,22.5c-0.6,6.8-0.8,13.7-1.5,20.6c-0.6,6.7-4.5,12.4-8.4,17.5c-3.7-0.9-7.3-2-11-2.9
	c-3.9,8.4-0.7,18.9,5.8,25.2c16.9,18.3,26,41.9,34.6,64.9c1.5,4.9,6.5,7.7,7.3,12.8c1.4,5.4,3.4,10.9,3,16.6c-0.6,10-1.4,20-2.4,30
	c-0.7,7.3-3.4,14.6-1.8,22c1.2,6,1.9,12.4-0.3,18.3c-3,7.4-2.9,15.5-3,23.4c0.1,5.2,0.4,10.9,4,15c4.3,5.2,8.4,10.7,13.5,15.1
	c6.3,4.1,14.9,4.1,20.1,10.1c1.6,3.3,0.5,7.1,0.4,10.5c-16.3,2.5-33.4,2.7-49.3-2.4c-9-2.9-18.8,2.1-27.4-2.8
	c0.5-10.2,2.9-20.2,6.6-29.8c1.5-7.1-0.1-14.5-0.3-21.7c-0.1-6.2-3.3-11.8-4.6-17.8c-3.5-12.9-4.6-26.3-5.2-39.6
	c-0.8-6.5,4.8-11.5,5-17.8c1.2-5.7,0.3-11.5-3.2-16.1c-6.1-0.2-14.3,1.4-17.7-5.1c-7.1-10.5-14-21.2-21.1-31.7
	c-2.5-4.5-8.4-3.5-12.5-5.5c-3.6-3.3-5.4-8.1-7.7-12.4c-1.3,4.9-3.1,9.8-6.8,13.5c-5.7,5.7-7.8,13.7-10.7,21
	c-2.1,5.2-4,10.6-4.7,16.2c-0.8,4.2-1,9.2-4.8,12c-5.6,4.2-7.6,11.3-12.7,16c-3.8,3.6-6.1,8.6-7.4,13.6c-0.4,4.5,0.9,9.1-0.2,13.6
	c-2.1,8.2-6.6,15.4-9.9,23.1c-2.4,5.4-3.6,11.2-6.2,16.6c-1.7,3.7-6.1,4.9-8.5,8.1c-7,12-9.2,26.5-6.7,40.2c2,5.4,3.5,11.1,2.2,16.9
	c-4.3,0.6-8.6,1.3-12.9,1.7H73.8c-3.5-0.7-7-1.3-10.2-2.9c-2.4-7.4-2-15.5,0.2-22.9c3.1-11.2,6-22.4,8.8-33.6
	c1.9-5.5-2.6-10.4-2.2-15.9c-0.5-8.1,4.6-14.8,8.2-21.6c3.4-6,2.2-13.3,4.6-19.6c5.4-13.8,15.5-25,21.5-38.5
	c1.9-5.5-0.2-11.3,0.2-16.9c0.5-10.7,2.6-21.2,4.4-31.8c0.6-4.1,1.9-8.3,0.4-12.3c-1.7-4.8-2.9-9.8-2.2-14.9
	c0.7-4.7-2.1-9.3-0.3-13.9c0.9-3.9,4.5-6.1,7.3-8.5c0.5-15.9-5.3-31.6-2.9-47.5c2.8-3.4,7.2-4.7,11.1-6.4c-5.7-1.2-11.4-2.4-17-3.6
	c-0.2-6.4,0.6-12.8,2-19.1c2.1-9.8,0.9-19.9,2.5-29.8c0.2-2.5,3-3.3,5.1-3.4c5.2-0.4,10.4-0.6,15.4-1.8c-1.5-12.4-2.8-25.1,0-37.5
	c2.7-14.6,9.3-29.4,21.5-38.5c8.4-5.7,20.6-9.1,29.5-2.3c0.7-0.5,2.2-1.5,2.9-2c-5.1-13.8-4-29.8,4.1-42.3
	C194,11.9,203.2,7.1,212.5,4.2 M295.3,99.3c-0.5,3.6-1.6,7.2-5.1,8.9c4.6-0.3,9.3-0.3,13.8-1.3c-0.1-2.7-0.2-5.3-0.3-7.9
	C300.9,99.1,298.1,99.2,295.3,99.3 M285.7,109.5c-0.4,0.5-1.2,1.5-1.6,2c0.7,4.9,4.4,8.9,6.8,13.2c3.6-5,7.2-10,10.6-15.1
	C296.2,109.3,291,109,285.7,109.5L285.7,109.5z"/>
</svg>
