<?xml version="1.0" encoding="utf-8"?>
<!-- Generator: Adobe Illustrator 24.1.2, SVG Export Plug-In . SVG Version: 6.00 Build 0)  -->
<svg version="1.1" id="Layer_1" xmlns="http://www.w3.org/2000/svg" xmlns:xlink="http://www.w3.org/1999/xlink" x="0px" y="0px"
	 viewBox="0 0 512 512" style="enable-background:new 0 0 512 512;" xml:space="preserve">
<style type="text/css">
	.st0{fill:#8A9CFE;}
	.st1{fill:#FDFDFD;}
</style>
<path class="st0" d="M391,506H121C57.5,506,6,454.5,6,391V121C6,57.5,57.5,6,121,6h270c63.5,0,115,51.5,115,115v270
	C506,454.5,454.5,506,391,506z"/>
<g id="Layer_1_1_">
</g>
<g id="_x39_1-discord">
	<g>
		<path class="st1" d="M370.5,174c-37.5-28.1-73.1-27.3-73.1-27.3l-3.6,4.2c44.2,13.5,64.8,33.1,64.8,33.1
			c-61.8-33.9-134.4-33.9-194.4-7.5c-9.6,4.4-15.4,7.5-15.4,7.5s21.6-20.6,68.4-34.1l-2.6-3.1c0,0-35.7-0.8-73.1,27.3
			c0,0-37.5,67.9-37.5,151.7c0,0,21.9,37.7,79.4,39.6c0,0,9.6-11.7,17.4-21.6c-33.1-9.9-45.5-30.7-45.5-30.7
			c3.8,2.7,10.1,6.2,10.7,6.5c43.9,24.6,106.3,32.7,162.4,9.1c9.1-3.4,19.3-8.3,29.9-15.4c0,0-13,21.3-47.1,31
			c7.8,9.9,17.2,21.1,17.2,21.1c57.5-1.8,79.6-39.6,79.6-39.6C408,241.9,370.5,174,370.5,174z M207.3,301.5
			c-14.6,0-26.5-13-26.5-28.9c0-15.9,11.7-28.9,26.5-28.9c14.8,0,26.8,13,26.5,28.9C233.9,288.5,222.2,301.5,207.3,301.5z
			 M302.3,301.5c-14.6,0-26.5-13-26.5-28.9c0-15.9,11.7-28.9,26.5-28.9c14.8,0,26.5,13,26.5,28.9
			C328.9,288.5,317.2,301.5,302.3,301.5z"/>
	</g>
</g>
</svg>
