<?xml version="1.0" encoding="utf-8"?>
<!-- Generator: Adobe Illustrator 24.1.2, SVG Export Plug-In . SVG Version: 6.00 Build 0)  -->
<svg version="1.1" id="Layer_1" xmlns="http://www.w3.org/2000/svg" xmlns:xlink="http://www.w3.org/1999/xlink" x="0px" y="0px"
	 viewBox="0 0 512 512" style="enable-background:new 0 0 512 512;" xml:space="preserve">
<style type="text/css">
	.st0{fill:#8A9CFE;}
	.st1{fill:#FFFFFF;}
</style>
<path class="st0" d="M391,506H121C57.5,506,6,454.5,6,391V121C6,57.5,57.5,6,121,6h270c63.5,0,115,51.5,115,115v270
	C506,454.5,454.5,506,391,506z"/>
<g id="Layer_1_1_">
</g>
<path class="st1" d="M303.6,155.8H331v-47.7c-4.7-0.7-21-2.1-39.9-2.1c-39.5,0-66.5,24.8-66.5,70.5v42H181v53.3h43.6V406H278V271.8
	h41.8l6.6-53.3H278v-36.7C278,166.4,282.1,155.8,303.6,155.8L303.6,155.8z"/>
</svg>
