<?xml version="1.0" encoding="UTF-8" standalone="no"?>
<svg
   xmlns="http://www.w3.org/2000/svg"
   id="svg8"
   version="1.1"
   viewBox="0 0 335.34912 343.83273"
   height="343.83273mm"
   width="335.34912mm">
  <defs
     id="defs2" />
  <g
     transform="translate(339.01656,38.296579)"
     id="layer1">
    <path
       id="path4528"
       d="m -208.89485,304.51058 c -3.33002,-1.57419 -6.2335,-4.42342 -7.6536,-7.51057 -0.96549,-2.09889 -1.11799,-9.90473 -1.41783,-72.57143 -0.32281,-67.46887 -0.38678,-70.33803 -1.63278,-73.24339 -0.71324,-1.6631 -2.00764,-4.16642 -2.87644,-5.56295 -0.86879,-1.39652 -26.42817,-37.53105 -56.79863,-80.298944 -30.37046,-42.767892 -56.21476,-79.40511 -57.43177,-81.416041 -3.89286,-6.432349 -2.79905,-13.824532 2.76897,-18.713321 1.30519,-1.145972 3.51527,-2.400775 4.91128,-2.788451 1.73765,-0.482549 51.60189,-0.703978 158.09641,-0.70205 l 155.558198,0.0028 3.35979,1.57809 c 3.9509296,1.855748 5.1598196,3.09096 7.0038496,7.156315 1.54585,3.407972 1.75424,6.788098 0.62487,10.134999 -0.42392,1.256274 -26.5042796,38.524533 -57.9563506,82.818356 -31.452075,44.293817 -58.127387,82.322197 -59.278457,84.507497 -1.15109,2.1853 -2.43621,5.68284 -2.85582,7.7723 -0.53183,2.64814 -0.76409,20.40637 -0.76671,58.61948 -0.003,35.63685 -0.24661,55.69495 -0.69778,57.31945 -0.88401,3.183 -3.495,6.28988 -6.60654,7.86125 -1.33943,0.67643 -16.9496,6.75836 -34.68928,13.5154 -34.64843,13.19757 -36.83565,13.80244 -41.66138,11.52119 z"
       style="stroke-width:0.67195767" />
  </g>
</svg>
