<?xml version="1.0" encoding="utf-8"?>
<!-- Generator: Adobe Illustrator 24.1.2, SVG Export Plug-In . SVG Version: 6.00 Build 0)  -->
<svg version="1.1" id="Layer_1" xmlns="http://www.w3.org/2000/svg" xmlns:xlink="http://www.w3.org/1999/xlink" x="0px" y="0px"
	 viewBox="0 0 512 512" style="enable-background:new 0 0 512 512;" xml:space="preserve">
<style type="text/css">
	.g2a-0{fill:none;}
	.g2a-1{fill:#6D7681;}
	.g2a-2{fill:#6D7681;}
	.g2a-3{fill:#6D7681;}
	.g2a-4{fill:#6D7681;}
</style>
<g>
	<path class="g2a-0" d="M338.4,255L256,172.7l-1,1l-79.5,79.5c-0.7,0.7-1.5,1.5-2.2,2.2c0,0,0,0,0,0l0,0c0.3,0.8,0.6,1.5,0.9,2.3
		l81.7,81.7l83.3-83.3L338.4,255z"/>
	<path class="g2a-1" d="M256,172.7l82.4,82.4c-27.5-66.3-54.9-132.7-82.4-199L56,256l199-82.4L256,172.7z"/>
	<path class="g2a-2" d="M339.3,256L256,339.3c66.7-27.8,133.3-55.6,200-83.3L256,56c27.5,66.3,54.9,132.7,82.4,199L339.3,256z"/>
	<path class="g2a-3" d="M173.3,255.3C173.3,255.3,173.3,255.3,173.3,255.3c0.7-0.7,1.5-1.5,2.2-2.2l79.5-79.5L56,256l200,200
		c-27.2-66.1-54.5-132.3-81.7-198.4C174,256.9,173.7,256.1,173.3,255.3z"/>
	<path class="g2a-4" d="M256,339.3l-81.7-81.7c27.2,66.1,54.5,132.3,81.7,198.4l200-200C389.3,283.8,322.7,311.6,256,339.3z"/>
	<polygon class="g2a-4" points="173.3,255.3 173.3,255.3 173.3,255.3 	"/>
</g>
</svg>
