<?xml version="1.0" encoding="utf-8"?>
<!-- Generator: Adobe Illustrator 24.1.2, SVG Export Plug-In . SVG Version: 6.00 Build 0)  -->
<svg version="1.1" id="Layer_1" xmlns="http://www.w3.org/2000/svg" xmlns:xlink="http://www.w3.org/1999/xlink" x="0px" y="0px"
	 viewBox="0 0 512 512" style="enable-background:new 0 0 512 512;" xml:space="preserve">
<style type="text/css">
	.st0{fill:#8A9CFE;}
	.st1{fill:#FFFFFF;}
</style>
<path class="st0" d="M391,506H121C57.5,506,6,454.5,6,391V121C6,57.5,57.5,6,121,6h270c63.5,0,115,51.5,115,115v270
	C506,454.5,454.5,506,391,506z"/>
<g id="Layer_1_1_">
</g>
<g>
	<path class="st1" d="M313.7,106H198.5c-51.1,0-92.5,41.4-92.5,92.5v115.1c0,51.1,41.3,92.4,92.5,92.4h115.1
		c51.1,0,92.4-41.3,92.4-92.4V198.5C406.1,147.3,364.7,106,313.7,106z M377.3,302.5c0,41.3-33.4,74.7-74.7,74.7h-93
		c-41.3,0-74.7-33.4-74.7-74.7v-93c0-41.3,33.4-74.7,74.7-74.7h93c41.3,0,74.7,33.5,74.7,74.7V302.5z"/>
	<path class="st1" d="M260.1,177.5c-43.7,0-79,35.4-79,79c0,43.6,35.4,79,79,79c43.6,0,79-35.4,79-79
		C339.1,212.9,303.7,177.5,260.1,177.5z M260.1,304.1c-26.3,0-47.6-21.3-47.6-47.6s21.3-47.6,47.6-47.6c26.2,0,47.6,21.3,47.6,47.6
		C307.6,282.8,286.3,304.1,260.1,304.1z"/>
	<path class="st1" d="M353.7,176.3c0,11.1-9,20.1-20.1,20.1s-20.1-9-20.1-20.1c0-11.1,9-20.1,20.1-20.1S353.7,165.1,353.7,176.3z"/>
</g>
</svg>
