<?xml version="1.0" encoding="UTF-8" standalone="no"?>
<svg
        xmlns="http://www.w3.org/2000/svg"
        id="svg8"
        version="1.1"
        viewBox="0 0 1051.1034 972.3709"
        height="972.37091mm"
        width="1051.1034mm">
  <g
          transform="translate(299.8015,533.91901)"
          id="layer1">
    <g
            id="layer1-3"
            transform="translate(999.76423,-277.76795)">
      <path
              style="stroke-width:0.89436615"
              d="m -1259.2077,715.87208 c -19.4575,-3.37749 -36.0293,-20.07575 -39.3423,-39.64243 -0.68,-4.01615 -0.9028,-30.69867 -0.7206,-86.30634 l 0.2636,-80.49296 2.3254,-5.97321 c 6.6502,-17.08262 21.075,-29.39924 37.4739,-31.99723 7.7838,-1.23313 150.368,-1.25016 158.3028,-0.0189 8.4175,1.30615 18.9486,6.75601 25.3496,13.11843 5.9145,5.87884 8.8146,10.40466 12.1435,18.9506 l 2.3062,5.92028 0.2589,80.49296 c 0.1847,57.45838 -0.034,82.24556 -0.7664,86.61722 -2.7892,16.66294 -15.077,31.09586 -31.9565,37.53521 -5.088,1.94104 -5.2764,1.9456 -84.2508,2.06491 -43.5332,0.0653 -80.1575,-0.0555 -81.3873,-0.26857 z m 350.34192,-0.79331 c -16.0277,-3.89514 -29.40143,-16.50731 -34.71979,-32.74274 l -2.14679,-6.55356 v -82.72888 -82.72887 l 2.32387,-6.35182 c 5.44189,-14.87434 15.76013,-25.24098 30.83915,-30.9838 l 5.29473,-2.01649 305.87321,-0.24501 c 210.92105,-0.16896 307.81668,0.0475 312.13378,0.69723 16.72805,2.51763 31.1853,14.72976 37.92113,32.03231 l 2.32535,5.97321 0.26366,80.49296 c 0.18218,55.60767 -0.0403,82.29019 -0.72068,86.30634 -2.85491,16.8614 -15.15656,31.4088 -32.00704,37.85003 l -5.09932,1.94927 -308.55631,0.15293 c -262.27033,0.13004 -309.33165,-0.0358 -313.72495,-1.10311 z M -1266.2728,350.16933 c -16.3621,-5.57283 -28.2838,-19.00505 -31.8641,-35.90143 -1.9051,-8.9906 -1.9051,-159.66337 0,-168.65397 3.7472,-17.68414 17.6126,-32.37703 34.9046,-36.98762 6.8248,-1.81972 159.8183,-1.74113 166.6817,0.0856 12.4018,3.30085 25.0532,13.61739 30.3757,24.76972 5.6214,11.77865 5.4901,9.47018 5.4901,96.45926 0,87.1852 0.1352,84.84681 -5.5833,96.54425 -3.6015,7.36719 -13.3979,17.37912 -20.4445,20.89429 -10.4574,5.21668 -7.7266,5.06947 -93.7909,5.05614 l -79.1514,-0.0122 -6.6179,-2.25402 z m 354.07917,0.26434 c -15.87051,-5.4306 -26.87679,-16.91925 -31.89425,-33.29205 -1.54531,-5.04261 -1.64448,-10.30098 -1.64448,-87.20071 0,-76.89972 0.0992,-82.15809 1.64448,-87.2007 5.13371,-16.75217 17.42191,-29.14229 33.62172,-33.90061 4.406,-1.29416 33.51684,-1.42587 313.02815,-1.41624 253.93102,0.009 308.95743,0.22047 312.64222,1.20295 17.29194,4.61059 31.1573,19.30348 34.90461,36.98762 1.90509,8.9906 1.90509,159.66337 0,168.65397 -3.59795,16.97933 -15.5634,30.40177 -32.02913,35.92914 l -6.7683,2.27204 -308.84583,-0.0231 -308.84581,-0.0231 z M -1260.1021,-11.659182 c -7.5011,-1.229826 -17.197,-6.248624 -23.2785,-12.049421 -6.3057,-6.014648 -10.135,-11.734183 -13.301,-19.866708 l -2.3254,-5.973213 -0.2588,-80.492956 c -0.1848,-57.45839 0.034,-82.24554 0.7663,-86.61724 2.1628,-12.92091 12.0253,-27.08944 23.2554,-33.40911 11.4615,-6.44983 5.6597,-6.07929 95.1878,-6.07929 h 80.493 l 5.9104,2.04315 c 7.6128,2.63161 13.3559,6.31127 19.2119,12.30937 5.9369,6.08096 11.4449,16.87371 12.8279,25.13588 0.732,4.37286 0.9501,29.14368 0.7627,86.61724 -0.2594,79.569505 -0.2842,80.549883 -2.1608,85.454989 -3.32,8.677794 -5.5904,12.332139 -11.6575,18.76358 -7.0425,7.465382 -16.8754,12.811214 -26.2362,14.263737 -7.2954,1.132044 -152.2378,1.040979 -159.1972,-0.100008 z m 352.3803,-0.385526 c -16.3509,-3.540849 -29.61572,-15.452546 -35.68669,-32.046357 l -2.32387,-6.351825 v -83.17606 -83.17605 l 2.07958,-5.81338 c 2.81403,-7.86652 5.88384,-12.94692 11.27778,-18.6642 5.77294,-6.11901 10.57685,-9.41291 18.15978,-12.45162 l 6.04624,-2.42292 h 310.34505 c 300.84544,0 310.49565,0.0512 315.26406,1.67309 17.08293,5.81036 30.16241,20.88426 33.08171,38.12621 0.67998,4.01611 0.90286,30.69864 0.72068,86.30634 l -0.26366,80.492956 -2.32535,5.973213 c -6.65024,17.082618 -21.07503,29.399239 -37.47395,31.99723 -3.91008,0.619438 -105.2262,0.899911 -309.45068,0.856633 -257.51689,-0.05456 -304.52031,-0.255566 -309.45068,-1.32326 z"
              id="path4541"/>
    </g>
  </g>
</svg>
