<?xml version="1.0" encoding="iso-8859-1"?>
<!-- Generator: Adobe Illustrator 19.0.0, SVG Export Plug-In . SVG Version: 6.00 Build 0)  -->
<svg version="1.1" id="Capa_1" xmlns="http://www.w3.org/2000/svg" xmlns:xlink="http://www.w3.org/1999/xlink" x="0px" y="0px"
	 viewBox="0 0 512 512" style="enable-background:new 0 0 512 512;" xml:space="preserve">
<g>
	<g>
		<g>
			<path d="M492,332.061c-11.046,0-20,8.954-20,20c0,22.056-17.944,40-40,40H80c-22.056,0-40-17.944-40-40v-200
				c0-22.056,17.944-40,40-40h30c11.046,0,20-8.954,20-20c0-11.046-8.954-20-20-20H80c-44.112,0-80,35.888-80,80v200
				c0,44.112,35.888,80,80,80h156v39.878h-70c-11.046,0-20,8.954-20,20c0,11.046,8.954,20,20,20h180c11.046,0,20-8.954,20-20
				c0-11.046-8.954-20-20-20h-70v-39.878h156c44.112,0,80-35.888,80-80C512,341.015,503.046,332.061,492,332.061z"/>
			<path d="M221.081,320.061H236v21c0,11.046,8.954,20,20,20s20-8.954,20-20v-21h6.019c38.588,0,69.981-31.427,69.981-70.057
				v-23.057c0-38.535-31.394-69.886-69.981-69.886H236.83c-16.448,0-29.829-13.561-29.829-30.229v-13.714
				c0-16.574,13.381-30.057,29.829-30.057h43.819c11.773,0,21.352,9.42,21.352,21c0,11.046,8.954,20,20,20c11.046,0,20-8.954,20-20
				c0-33.636-27.522-61-61.352-61H276v-23c0-11.046-8.954-20-20-20c-11.046,0-20,8.954-20,20v23.021
				c-38.122,0.449-69,31.685-69,70.036v13.714c0,38.724,31.325,70.229,69.829,70.229h45.189c16.532,0,29.981,13.407,29.981,29.886
				v23.057c0,16.574-13.449,30.057-29.981,30.057H221.08c-11.427,0-21.081-10.075-21.081-22c0-11.046-8.954-20-20-20
				s-20,8.954-20,20C160,292.248,187.4,320.061,221.081,320.061z"/>
			<path d="M432,72.061h-30c-11.046,0-20,8.954-20,20c0,11.046,8.954,20,20,20h30c22.056,0,40,17.944,40,40v100
				c0,11.046,8.954,20,20,20c11.046,0,20-8.954,20-20v-100C512,107.948,476.112,72.061,432,72.061z"/>
		</g>
	</g>
</g>
<g>
</g>
<g>
</g>
<g>
</g>
<g>
</g>
<g>
</g>
<g>
</g>
<g>
</g>
<g>
</g>
<g>
</g>
<g>
</g>
<g>
</g>
<g>
</g>
<g>
</g>
<g>
</g>
<g>
</g>
</svg>
