<?xml version="1.0" encoding="utf-8"?>
<!-- Generator: Adobe Illustrator 24.1.2, SVG Export Plug-In . SVG Version: 6.00 Build 0)  -->
<svg version="1.1" id="Layer_1" xmlns="http://www.w3.org/2000/svg" xmlns:xlink="http://www.w3.org/1999/xlink" x="0px" y="0px"
	 viewBox="0 0 512 512" style="enable-background:new 0 0 512 512;" xml:space="preserve">
<g>
	<path d="M484.9,172.4c6.9-6.9,11.6-11.6,13.2-13.2c18.5-18.5,18.5-48.4,0-66.9l-78.5-78.5c-18.5-18.5-48.4-18.5-66.9,0
		c-1.4,1.4-6.1,6.1-13.2,13.2L484.9,172.4z"/>
	<path d="M297.2,69.5C209.3,157.3,48.7,317.9,44.6,322c-2.1,2.1-3.7,4.9-4.5,7.9L0.5,491c-3,12.3,8.2,23.5,20.4,20.4
		c8.3-2.1,153.7-37.8,161.1-39.6c3-0.7,5.8-2.3,7.9-4.5c4.4-4.4,164.7-164.7,252.5-252.5L297.2,69.5z M84.9,460.9L51,427l14.7-60
		l79.2,79.2L84.9,460.9z"/>
</g>
</svg>
