<svg xmlns="http://www.w3.org/2000/svg" data-name="Layer 1" viewBox="0 0 32 32"><rect width="25" height="15" x="3.5" y="8.5" fill="none" stroke="#FFF" stroke-linecap="round" stroke-linejoin="round" rx="1" ry="1"/><polyline fill="none" stroke="#FFF" stroke-linecap="round" stroke-linejoin="round" points="6.5 20.5 6.5 11.5 9.5 11.5"/><rect width="3" height="5" x="6.5" y="11.5" fill="none" stroke="#FFF" stroke-linecap="round" stroke-linejoin="round"/><path fill="none" stroke="#FFF" stroke-linecap="round" stroke-linejoin="round" d="M17.5 11.5h2a1 1 0 0 1 1 1V15a1 1 0 0 1-1 1h-2a0 0 0 0 1 0 0V11.5A0 0 0 0 1 17.5 11.5zM19.5 20.5h-2V16h2a1 1 0 0 1 1 1v2.5A1 1 0 0 1 19.5 20.5zM16.5 16h2M1.5 20.5h2M1.5 11.5h2M28.5 20.5h2M28.5 11.5h2"/><polyline fill="none" stroke="#FFF" stroke-linecap="round" stroke-linejoin="round" points="14.5 11.5 14.5 20.5 11.5 20.5 11.5 11.5"/><polyline fill="none" stroke="#FFF" stroke-linecap="round" stroke-linejoin="round" points="25.5 13.5 25.5 11.5 22.5 11.5 22.5 20.5 25.5 20.5 25.5 16 24.5 16"/></svg>