<svg id="logosandtypes_com" xmlns="http://www.w3.org/2000/svg" viewBox="0 0 150 150.2">
    <style type="text/css">
        .qiwi-0 {fill:#6D7681;}
        .qiwi-1 {fill:#6D7681;}
    </style>
    <g id="Qiwi">
        <path class="qiwi-0" fill="#6D7681"
              d="M120.1 98.6c2.3.9 3.2 4.4 3.4 5.9.4 2.8-.4 3.9-1.3 3.9s-2.2-1.1-3.5-3.2c-1.3-2.2-1.9-4.6-1.2-5.8.4-.9 1.4-1.3 2.6-.8zM106.4 108.7c1.4 0 3.1.6 4.5 1.9 2.8 2.3 3.6 5 2.2 7-.8 1-2.2 1.6-3.7 1.6s-3.1-.5-4.2-1.5c-2.5-2.2-3.2-5.7-1.6-7.7.6-.8 1.6-1.3 2.8-1.3z"/>
        <path class="qiwi-1" fill="#6D7681"
              d="M75 134.7c-34.1 0-61.7-27.6-61.7-61.7S40.9 11.2 75 11.2s61.7 27.6 61.7 61.7c0 11.6-3.2 22.4-8.7 31.7-.2.3-.6.2-.7-.2-2.2-15.2-11.4-23.5-24.8-26-1.2-.2-1.3-.9.2-1.1 4.1-.4 10-.3 13 .3.2-1.5.3-3.1.3-4.8C116 50.3 97.7 32 75.2 32c-22.5 0-40.8 18.3-40.8 40.8s18.3 40.8 40.8 40.8H77c-.6-3.6-.9-7.3-.8-11 .1-2.5.6-2.9 1.7-.9 5.7 9.8 13.7 18.6 29.5 22.1 12.9 2.9 25.8 6.2 39.7 23.9 1.3 1.5-.6 3.1-2.1 1.9-14.2-12.6-27.1-16.7-38.8-16.7-13.1.1-22.1 1.8-31.2 1.8z"/>
    </g>
</svg>