<?xml version="1.0" encoding="UTF-8" standalone="no"?>
<svg
   xmlns="http://www.w3.org/2000/svg"
   id="svg8"
   version="1.1"
   viewBox="0 0 154.35509 117.31544"
   height="117.31544mm"
   width="154.35509mm"
>
  <g
     transform="translate(730.61504,-9.0469091)"
     id="layer1">
    <path
       id="path4604"
       d="m -695.88092,126.17365 c -1.37323,-0.44951 -1.82413,-0.73202 -8.28027,-5.18796 -3.37125,-2.32679 -6.69002,-4.77993 -7.37504,-5.45141 -2.67549,-2.62263 -4.59327,-6.12838 -5.85856,-10.70965 -2.77521,-10.048281 -5.83882,-17.13301 -8.87065,-20.513774 -1.20423,-1.342828 -1.82037,-2.455146 -2.55281,-4.60861 -0.85687,-2.519297 -1.79679,-8.459118 -1.79679,-11.354807 0,-1.163698 0.77008,-1.87213 4.85319,-4.464683 1.76661,-1.121697 11.29334,-7.35369 21.17052,-13.848872 24.88477,-16.364095 28.42237,-18.647155 36.02456,-23.249174 12.49389,-7.563229 16.39711,-10.081789 19.61161,-12.654422 3.52011,-2.817217 5.64924,-4.07136 8.1156,-4.7804067 2.17563,-0.6254682 3.57659,-0.3878902 10.12545,1.7170997 13.69431,4.401736 19.52781,5.911144 24.58835,6.362196 8.98003,0.800399 18.45373,3.60081 21.52601,6.36305 1.95832,1.760703 6.08351,7.61488 7.67757,10.895484 0.81809,1.683638 0.86992,2.715269 0.20137,4.008099 -0.17577,0.33991 -1.6212,1.595264 -3.21207,2.789677 -3.82848,2.874405 -15.386,12.127956 -23.68216,18.961167 -12.94339,10.66095 -14.49066,11.825533 -16.56054,12.464611 -2.68929,0.830322 -3.77701,1.33747 -5.8847,2.743725 -2.73445,1.824429 -9.46787,6.913131 -13.35391,10.092061 -2.95818,2.419904 -8.28241,7.354104 -8.11551,7.521004 0.0432,0.04319 1.4732,-0.316074 3.1778,-0.798375 20.42653,-5.779491 41.47214,-11.41493 43.7487,-11.714706 1.56483,-0.206056 3.40728,0.20285 5.4552,1.210705 1.47737,0.727061 2.19401,1.27656 4.00014,3.067197 3.30427,3.275936 5.52539,6.858213 6.43947,10.385738 0.47309,1.825737 0.44245,4.458715 -0.0649,5.575746 -0.70687,1.55634 -4.5469,4.63167 -7.65801,6.13299 -2.05213,0.99029 -3.63154,1.4216 -6.23709,1.70323 -1.06461,0.11508 -3.33899,0.36168 -5.05419,0.54801 -1.7152,0.18632 -6.21867,0.85967 -10.0077,1.49634 l -6.88916,1.15757 -7.30559,0.22979 c -11.07016,0.3482 -16.09945,0.70511 -21.82296,1.54869 -3.79642,0.55955 -13.97302,0.77401 -19.50437,0.41104 l -3.87734,-0.25443 -3.74056,2.44771 c -4.88428,3.19614 -10.26994,6.43298 -15.14752,9.10384 -1.54144,0.84406 -2.68974,1.03861 -3.86315,0.65451 z m -5.73031,-28.428007 c 1.29806,-0.710746 6.7293,-4.725981 6.96687,-5.150505 0.12926,-0.230966 0.0112,-0.486402 -0.40181,-0.869136 -0.66891,-0.619923 -3.56793,-2.57034 -5.08278,-3.419612 -0.69032,-0.387016 -1.16564,-0.854593 -1.46474,-1.440879 -0.60764,-1.191064 -5.26433,-11.760818 -6.03257,-13.692738 -1.26083,-3.170617 -2.57521,-5.422459 -3.16505,-5.422459 -0.75281,0 -5.41391,3.287317 -5.41391,3.818254 0,0.185012 0.59885,1.260806 1.33077,2.390654 1.21744,1.879342 1.59942,2.805879 4.48573,10.880767 4.2382,11.857006 4.52588,12.550813 5.5619,13.413611 0.48271,0.402002 1.98798,0.164218 3.21559,-0.507957 z m 21.91593,-17.066389 c 1.55726,-1.042798 5.0805,-2.939421 10.15191,-5.464956 1.47379,-0.733939 2.78035,-1.509472 2.90348,-1.723406 0.32058,-0.557032 -0.37233,-1.008995 -1.54689,-1.008995 -1.4288,0 -4.10158,-0.616607 -5.29569,-1.22171 -0.58842,-0.298171 -1.75945,-1.061167 -2.60229,-1.695546 -2.34465,-1.764723 -3.60052,-2.169573 -4.58694,-1.478665 -0.99507,0.69698 -1.10222,1.265585 -1.36719,7.255451 -0.13843,3.129134 -0.19131,5.846661 -0.11752,6.038951 0.21946,0.571915 0.8122,0.403057 2.46113,-0.701124 z m -11.88119,-1.020749 c 1.20298,-0.333725 2.0402,-0.677595 2.0402,-0.837966 0,-0.149589 -0.33594,-0.983698 -0.74652,-1.853576 -1.6543,-3.50485 -2.39084,-8.111231 -1.84147,-11.516747 0.33908,-2.101957 1.26634,-4.744379 2.59162,-7.38534 0.95951,-1.912087 1.1589,-2.487649 1.09649,-3.165113 -0.0567,-0.615708 -1.21466,-0.152604 -4.73224,1.892599 -5.0415,2.931246 -7.25583,4.383242 -7.5647,4.960368 -0.23443,0.438033 -0.17961,0.54721 0.57439,1.143964 0.45846,0.362844 1.16318,0.957834 1.56606,1.322198 l 0.7325,0.662482 -0.27776,1.785534 c -0.67659,4.349306 0.74576,11.73109 2.53096,13.135332 0.71658,0.563662 1.59322,0.532402 4.03047,-0.143735 z m 27.19835,-12.375308 c 1.87135,-0.732499 2.8012,-1.419213 2.8012,-2.068739 0,-0.843579 -3.86775,-6.841741 -6.54714,-10.153391 -1.48344,-1.833489 -3.02945,-3.962701 -3.43558,-4.731584 -0.40612,-0.768882 -1.25382,-2.058107 -1.88377,-2.864943 -1.10987,-1.421521 -1.17047,-1.463791 -1.95573,-1.36415 -1.02921,0.130596 -2.88681,1.313831 -3.41028,2.172237 -0.54283,0.890183 -0.505,2.326094 0.0995,3.777432 1.12793,2.707907 9.4352,14.213595 11.14169,15.431415 0.88073,0.628515 1.11504,0.613953 3.19008,-0.198277 z m 11.65035,-8.635153 c 2.13498,-1.262236 9.92175,-5.325496 17.92732,-9.354767 9.01593,-4.537793 11.86678,-6.466214 12.9348,-8.749569 0.60756,-1.298927 0.66085,-2.379102 0.13082,-2.65193 -0.20701,-0.106555 -1.29581,-0.259075 -2.41956,-0.338936 -5.14589,-0.365691 -12.58364,-1.941812 -16.16386,-3.425251 -2.69209,-1.115447 -8.90928,-4.534954 -10.4803,-5.764246 -0.83679,-0.654769 -1.66967,-0.502533 -3.39337,0.620245 -2.31404,1.50732 -2.31494,1.76864 -0.0124,3.611318 3.34212,2.674607 5.78823,3.983966 11.01603,5.896698 4.40094,1.610203 8.21097,3.492816 8.54285,4.221194 0.25164,0.552289 0.21197,0.628335 -0.78554,1.506099 -2.55425,2.247623 -5.70947,3.20833 -9.97116,3.036034 -2.55445,-0.103274 -2.70631,-0.136788 -4.4834,-0.989499 -1.01168,-0.485433 -2.05592,-0.882606 -2.32054,-0.882606 -0.54699,0 -3.53048,1.564606 -4.23489,2.220865 -0.45376,0.422737 -0.46226,0.527959 -0.32338,3.999535 0.25009,6.250985 0.36722,7.347233 0.83505,7.81506 0.56443,0.564428 1.20443,0.410449 3.20149,-0.770244 z m -10.77006,-14.684156 c 3.12915,-0.920344 9.01829,-4.924589 9.01829,-6.131874 0,-1.316698 -4.5248,-0.248066 -7.43884,1.756848 -1.45924,1.00398 -3.91188,3.151523 -4.18757,3.666644 -0.57045,1.065894 0.45013,1.34309 2.60812,0.708382 z m 49.42797,-12.746961 c 1.42418,-0.541147 3.64014,-2.123704 4.03038,-2.878355 0.65592,-1.268403 -0.31415,-1.998621 -2.44987,-1.844136 -2.84685,0.205922 -6.41354,3.038846 -5.6417,4.481047 0.11485,0.214597 0.3309,0.439364 0.48012,0.499479 0.63394,0.255396 2.60328,0.113495 3.58107,-0.258035 z m -11.63252,-0.38243 c 0.91592,-0.24532 0.47377,-0.943244 -1.46302,-2.309375 -2.25827,-1.592892 -5.91608,-5.22511 -7.71446,-7.6605 -0.74247,-1.005461 -1.48636,-1.904554 -1.65308,-1.997984 -0.20877,-0.116995 -0.72273,0.217743 -1.65111,1.07536 -0.74139,0.684878 -1.90449,1.716705 -2.58465,2.29295 -1.94583,1.648527 -1.86772,1.800804 1.82811,3.564296 4.38458,2.092129 11.3078,4.91326 12.63548,5.148809 0.0591,0.01049 0.33037,-0.04061 0.60273,-0.113556 z"
       style="fill:#000000;stroke-width:0.21507198" />
  </g>
</svg>
