<?xml version="1.0" encoding="UTF-8" standalone="no"?>
<svg
   xmlns="http://www.w3.org/2000/svg"
   id="svg8"
   version="1.1"
   viewBox="0 0 1056.7255 1055.5755"
   height="1055.5756mm"
   width="1056.7255mm">
  <defs
     id="defs2" />
  <g
     transform="translate(738.37659,491.51599)"
     id="layer1">
    <path
       id="path4575"
       d="m -129.39618,559.13161 c -51.24319,-7.38265 -74.87778,-63.06165 -70.93091,-109.79764 7.25456,-142.27189 -77.82208,-272.6459 -185.10025,-359.026997 -88.92004,-72.493894 -196.6779,-116.036376 -303.69899,-154.227927 -63.3435,-31.393514 -63.36445,-137.138256 3.59025,-164.162596 59.57069,-23.80961 123.21939,-35.72646 184.26242,-55.57065 241.68391,-69.58373 482.638452,-141.75545 725.31092,-207.86179 55.8142,0.84834 102.94768,53.98719 90.8499,109.01686 -25.19668,88.57729 -64.53897,172.36096 -95.14564,259.1384 -80.79955,211.633739 -161.599087,423.26749 -242.398626,634.90124 -19.564288,37.4794 -65.644683,60.50205 -106.739074,47.5911 z"
       style="stroke-width:0.89436626" />
  </g>
</svg>
