<?xml version="1.0" encoding="utf-8"?>
<!-- Generator: Adobe Illustrator 24.1.2, SVG Export Plug-In . SVG Version: 6.00 Build 0)  -->
<svg version="1.1" id="Layer_1" xmlns="http://www.w3.org/2000/svg" xmlns:xlink="http://www.w3.org/1999/xlink" x="0px" y="0px"
	 viewBox="0 0 512 512" style="enable-background:new 0 0 512 512;" xml:space="preserve">
<g>
	<g>
		<path d="M511,196.9c-2.4-7.5-8.9-12.9-16.7-14.1l-151.9-22.2L274.5,23.1c-3.5-7.1-10.7-11.5-18.5-11.5c-7.9,0-15.1,4.5-18.5,11.5
			l-67.9,137.6L17.7,182.8C9.9,184,3.4,189.4,1,196.9s-0.4,15.7,5.2,21.2l109.9,107L90.2,476.3c-1.3,7.8,1.9,15.6,8.2,20.2
			c6.4,4.6,14.8,5.2,21.8,1.6L256,426.7l135.8,71.4c3,1.6,6.3,2.4,9.6,2.4c4.3,0,8.6-1.3,12.2-3.9c6.4-4.6,9.6-12.5,8.2-20.2
			l-25.9-151.2l109.9-107C511.4,212.6,513.4,204.4,511,196.9z"/>
	</g>
</g>
</svg>
