<?xml version="1.0" encoding="utf-8"?>
<!-- Generator: Adobe Illustrator 24.1.2, SVG Export Plug-In . SVG Version: 6.00 Build 0)  -->
<svg version="1.1" id="Layer_1" xmlns="http://www.w3.org/2000/svg" xmlns:xlink="http://www.w3.org/1999/xlink" x="0px" y="0px"
	 viewBox="0 0 512 512" style="enable-background:new 0 0 512 512;" xml:space="preserve">
<style type="text/css">
	.st0{fill:#8A9CFE;}
	.st1{fill:#FFFFFF;}
</style>
<path class="st0" d="M391,506.4H121c-63.5,0-115-51.5-115-115v-270c0-63.5,51.5-115,115-115h270c63.5,0,115,51.5,115,115v270
	C506,454.9,454.5,506.4,391,506.4z"/>
<g id="Layer_1_1_">
</g>
<path class="st1" d="M365.1,156.4c-33.1,0-60.1,26.9-60.1,60.1c0,5.5,1,10.8,2.4,15.9l-24.1,38c-3.2-0.7-6.5-1.2-9.9-1.2
	c-10.6,0-20.3,4-27.9,10.3l-71.8-31.5c0.1-0.9,0.2-1.6,0.2-2.5c0-24.1-19.6-43.6-43.6-43.6s-43.6,19.6-43.6,43.6
	s19.6,43.6,43.6,43.6c9,0,17.3-2.7,24.2-7.4l75.4,33.1c1.1,23.1,20.1,41.6,43.4,41.6c24.1,0,43.6-19.6,43.6-43.6
	c0-1.8-0.3-3.5-0.5-5.3l40.4-31.8c2.7,0.4,5.3,0.8,8.1,0.8c33.1,0,60.1-26.9,60.1-60.1C425.1,183.3,398.2,156.4,365.1,156.4z
	 M110,245.4c0-11.3,9.2-20.5,20.5-20.5c11.3,0,20.5,9.2,20.5,20.5c0,11.3-9.2,20.5-20.5,20.5C119.2,265.9,110,256.7,110,245.4z
	 M273.5,333.9c-11.7,0-21.2-9.5-21.2-21.2c0-11.7,9.5-21.2,21.2-21.2c11.7,0,21.2,9.5,21.2,21.2S285.2,333.9,273.5,333.9z
	 M365.1,250.7c-18.9,0-34.3-15.4-34.3-34.3s15.4-34.3,34.3-34.3s34.3,15.4,34.3,34.3S384,250.7,365.1,250.7z"/>
</svg>
