<?xml version="1.0" encoding="utf-8"?>
<!-- Generator: Adobe Illustrator 24.1.2, SVG Export Plug-In . SVG Version: 6.00 Build 0)  -->
<svg version="1.1" id="Layer_1" xmlns="http://www.w3.org/2000/svg" xmlns:xlink="http://www.w3.org/1999/xlink" x="0px" y="0px"
	 viewBox="0 0 612 574.4" style="enable-background:new 0 0 612 574.4;" xml:space="preserve">
<path id="Прямоугольник_скругл._углы_1" class="sticker-placeholder" d="M164.9,114.1L562.7,8.4c9.1-2.4,15,3.8,13.2,13.9
	l-26.4,143.9c-2.2,9.9-9.4,17.9-19,21.2L149.3,291.7c-5.6,2.3-12.1-0.4-14.4-6c-0.8-2-1-4.1-0.6-6.2l12-142.8
	C147.5,126.2,154.8,117.3,164.9,114.1z"/>
<path id="Прямоугольник_скругл._углы_1_копия" class="sticker-placeholder" d="M174.3,384.8L582,276.3
	c9.4-2.5,15.4,3.9,13.5,14.2l-27.1,147.8c-2.3,10.1-9.6,18.4-19.4,21.8L158.2,567.3c-5.8,2.4-12.4-0.4-14.8-6.2
	c-0.8-2-1.1-4.2-0.7-6.4l12.3-146.5C156.4,397.3,163.8,388.1,174.3,384.8z"/>
<path id="Прямоугольник_скругл._углы_1_копия_2" class="sticker-placeholder" d="M53,280.4l416.5-108.5
	c9.6-2.5,15.7,4,13.7,14.3l-28.9,148.2c-2.5,10.2-10,18.5-20,21.9L31.7,459.5c-5.7,2.4-12.3-0.4-14.7-6.1c-0.8-2.1-1.1-4.3-0.6-6.5
	l17.3-143.2C35,292.9,42.6,283.8,53,280.4z"/>
</svg>
