<svg id="Capa_1" enable-background="new 0 0 512.018 512.018" height="512" viewBox="0 0 512.018 512.018" width="512" xmlns="http://www.w3.org/2000/svg"><path d="m374.009 0h-157.334c-104.984 0-170.556 112.692-121.469 203.441-55.189 17.967-95.197 69.88-95.197 131.226 0 76.093 61.907 138 138 138h19.333v19.333c0 14.9 15.702 24.509 28.944 17.889l74.444-37.222h34.611c105.065 0 170.45-112.716 121.485-203.476 55.196-18.059 95.182-70.039 95.182-131.191.001-76.094-61.905-138-137.999-138zm-78.667 432.667h-39.333c-3.105 0-6.167.723-8.944 2.111l-49.722 24.861v-6.973c0-11.046-8.954-20-20-20h-39.333c-54.038 0-98-43.963-98-98 0-48.658 35.414-88.898 81.689-96.643 24.758 23.523 58.21 37.977 94.976 37.977h34.612l74.444 37.222c13.276 6.636 28.944-3.024 28.944-17.889v-19.333h19.166c47.742 63.791 2.589 156.667-78.499 156.667zm78.667-196.667h-39.333c-11.046 0-20 8.954-20 20v6.973l-49.723-24.861c-2.777-1.389-5.84-2.111-8.944-2.111h-39.333c-54.038 0-98-43.962-98-98s43.962-98 98-98h157.333c54.037 0 98 43.962 98 98s-43.963 97.999-98 97.999zm20-98c0 11.046-8.954 20-20 20h-157.334c-11.046 0-20-8.954-20-20s8.954-20 20-20h157.333c11.047 0 20.001 8.954 20.001 20zm-157.333 196.333c0 11.046-8.954 20-20 20s-20-8.954-20-20 8.954-20 20-20c11.045 0 20 8.955 20 20zm78.666 0c0 11.046-8.954 20-20 20s-20-8.954-20-20 8.954-20 20-20 20 8.955 20 20zm-157.333 0c0 11.046-8.954 20-20 20s-20-8.954-20-20 8.954-20 20-20 20 8.955 20 20z"/></svg>