<?xml version="1.0" encoding="utf-8"?>
<!-- Generator: Adobe Illustrator 24.1.2, SVG Export Plug-In . SVG Version: 6.00 Build 0)  -->
<svg version="1.1" id="Layer_1" xmlns="http://www.w3.org/2000/svg" xmlns:xlink="http://www.w3.org/1999/xlink" x="0px" y="0px"
	 viewBox="0 0 512 512" style="enable-background:new 0 0 512 512;" xml:space="preserve">
<style type="text/css">
	.st0{fill:#8A9CFE;}
	.st1{fill:#FFFFFF;}
</style>
<path class="st0" d="M391,506H121C57.5,506,6,454.5,6,391V121C6,57.5,57.5,6,121,6h270c63.5,0,115,51.5,115,115v270
	C506,454.5,454.5,506,391,506z"/>
<g id="Layer_1_1_">
</g>
<path class="st1" d="M223.7,295.8l-5,69.8c7.1,0,10.2-3,13.9-6.7l33.3-31.8l69,50.5c12.6,7,21.6,3.3,25-11.6l45.3-212.1l0,0
	c4-18.7-6.8-26-19.1-21.4L119.9,234.2c-18.2,7-17.9,17.2-3.1,21.8l68,21.2l158-98.9c7.4-4.9,14.2-2.2,8.6,2.7L223.7,295.8z"/>
</svg>
