<?xml version="1.0" encoding="utf-8"?>
<!-- Generator: Adobe Illustrator 24.1.2, SVG Export Plug-In . SVG Version: 6.00 Build 0)  -->
<svg version="1.1" id="Layer_1" xmlns="http://www.w3.org/2000/svg" xmlns:xlink="http://www.w3.org/1999/xlink" x="0px" y="0px"
	 viewBox="0 0 512 512" style="enable-background:new 0 0 512 512;" xml:space="preserve">
<style type="text/css">
	.st0{fill:#8A9CFE;}
	.st1{fill:#FFFFFF;}
</style>
<path class="st0" d="M391,506H121C57.5,506,6,454.5,6,391V121C6,57.5,57.5,6,121,6h270c63.5,0,115,51.5,115,115v270
	C506,454.5,454.5,506,391,506z"/>
<g id="Layer_1_1_">
</g>
<g>
	<g>
		<path class="st1" d="M409.8,160.6c-11.4,5-23.6,8.3-36.3,10c13.1-7.8,23.1-20.1,27.8-34.9c-12.2,7.3-25.7,12.4-40,15.3
			c-11.6-12.3-28.1-20-46.1-20c-34.9,0-63,28.3-63,63.1c0,5,0.4,9.8,1.5,14.4c-52.4-2.6-98.8-27.7-130-66
			c-5.4,9.4-8.6,20.3-8.6,31.9c0,21.8,11.2,41.2,28,52.4c-10.1-0.2-20.1-3.1-28.5-7.8c0,0.2,0,0.4,0,0.7c0,30.7,21.9,56.1,50.5,62
			c-5.1,1.4-10.7,2.1-16.5,2.1c-4,0-8.1-0.2-11.9-1.1c8.2,25,31.4,43.3,58.9,43.9c-21.5,16.8-48.7,26.9-78.2,26.9
			c-5.2,0-10.1-0.2-15.1-0.9c27.9,18,61.1,28.3,96.8,28.3c116.1,0,179.5-96.2,179.5-179.5c0-2.8-0.1-5.5-0.2-8.2
			C390.8,184.5,401.3,173.4,409.8,160.6z"/>
	</g>
</g>
</svg>
