<?xml version="1.0" encoding="utf-8"?>
<!-- Generator: Adobe Illustrator 24.1.2, SVG Export Plug-In . SVG Version: 6.00 Build 0)  -->
<svg version="1.1" id="Layer_1" xmlns="http://www.w3.org/2000/svg" xmlns:xlink="http://www.w3.org/1999/xlink" x="0px" y="0px"
	 viewBox="0 0 512 512" style="enable-background:new 0 0 512 512;" xml:space="preserve">
<style type="text/css">
	.st0{fill:#8A9CFE;}
	.st1{fill:#FFFFFF;}
</style>
<path class="st0" d="M391,506H121C57.5,506,6,454.5,6,391V121C6,57.5,57.5,6,121,6h270c63.5,0,115,51.5,115,115v270
	C506,454.5,454.5,506,391,506z"/>
<g id="Layer_1_1_">
</g>
<g>
	<path class="st1" d="M429.4,336.6c-0.4-0.9-0.8-1.7-1.2-2.3c-6.1-11-17.7-24.4-34.9-40.3l-0.4-0.4l-0.2-0.2l-0.2-0.2h-0.2
		c-7.8-7.4-12.7-12.4-14.8-15c-3.8-4.9-4.6-9.8-2.6-14.8c1.5-3.8,6.9-11.7,16.4-23.9c5-6.4,8.9-11.6,11.9-15.5
		c21.1-28,30.2-45.9,27.4-53.7l-1.1-1.8c-0.7-1.1-2.6-2.1-5.7-3c-3-0.9-6.9-1.1-11.7-0.5l-52.6,0.4c-0.9-0.3-2.1-0.3-3.7,0.1
		c-1.6,0.4-2.4,0.5-2.4,0.5l-0.9,0.5l-0.7,0.5c-0.6,0.4-1.3,1-2,1.9c-0.7,0.9-1.3,2-1.8,3.2c-5.7,14.7-12.2,28.4-19.5,41.1
		c-4.5,7.5-8.6,14.1-12.4,19.6c-3.8,5.5-6.9,9.6-9.5,12.2c-2.6,2.6-4.9,4.7-6.9,6.3c-2.1,1.6-3.6,2.3-4.7,2
		c-1.1-0.2-2.1-0.5-3.1-0.7c-1.7-1.1-3.1-2.6-4.1-4.5c-1-1.9-1.7-4.3-2.1-7.1c-0.4-2.9-0.6-5.3-0.6-7.4c-0.1-2.1,0-5,0.1-8.8
		c0.1-3.8,0.2-6.3,0.2-7.7c0-4.6,0.1-9.6,0.3-15.1c0.2-5.4,0.3-9.7,0.5-12.9c0.1-3.2,0.2-6.5,0.2-10c0-3.5-0.2-6.3-0.6-8.3
		c-0.4-2-1.1-4-1.9-5.8c-0.9-1.9-2.1-3.3-3.7-4.4c-1.6-1-3.7-1.9-6.1-2.5c-6.4-1.5-14.7-2.2-24.6-2.4c-22.6-0.2-37.2,1.2-43.6,4.4
		c-2.6,1.3-4.9,3.2-6.9,5.5c-2.2,2.7-2.5,4.1-0.9,4.4c7.3,1.1,12.5,3.7,15.5,7.8l1.1,2.2c0.9,1.6,1.7,4.4,2.6,8.4
		c0.9,4,1.4,8.5,1.6,13.3c0.6,8.9,0.6,16.5,0,22.8c-0.6,6.3-1.2,11.3-1.7,14.8c-0.5,3.5-1.4,6.4-2.5,8.6c-1.1,2.2-1.8,3.5-2.2,4
		c-0.4,0.5-0.7,0.8-0.9,0.9c-1.6,0.6-3.2,0.9-4.9,0.9c-1.7,0-3.8-0.9-6.2-2.6c-2.4-1.7-5-4-7.6-7c-2.6-3-5.6-7.1-8.9-12.5
		c-3.3-5.4-6.7-11.7-10.2-19l-2.9-5.3c-1.8-3.4-4.3-8.4-7.5-14.9c-3.2-6.5-6-12.8-8.4-18.9c-1-2.6-2.4-4.5-4.4-5.8l-0.9-0.5
		c-0.6-0.5-1.6-1-2.9-1.6c-1.3-0.5-2.7-0.9-4.2-1.2l-50,0.4c-5.1,0-8.6,1.2-10.4,3.5l-0.7,1.1c-0.4,0.6-0.5,1.6-0.5,2.9
		c0,1.3,0.4,3,1.1,4.9c7.3,17.2,15.2,33.7,23.8,49.6s16,28.8,22.4,38.5c6.3,9.7,12.8,18.9,19.3,27.6c6.6,8.6,10.9,14.2,13,16.6
		c2.1,2.4,3.8,4.3,5,5.5l4.6,4.4c2.9,2.9,7.2,6.4,12.9,10.5c5.7,4.1,11.9,8.1,18.8,12.1c6.9,4,14.9,7.2,24,9.7
		c9.1,2.5,18,3.5,26.6,3h21c4.3-0.4,7.5-1.7,9.7-4l0.7-0.9c0.5-0.7,0.9-1.9,1.4-3.4c0.4-1.5,0.6-3.2,0.6-5
		c-0.1-5.2,0.3-9.9,1.2-14.1c0.9-4.2,1.9-7.4,3.1-9.5c1.2-2.1,2.5-3.9,3.9-5.4c1.5-1.5,2.5-2.3,3.1-2.6c0.6-0.3,1.1-0.5,1.5-0.6
		c2.9-1,6.4,0,10.3,2.8c4,2.9,7.7,6.4,11.1,10.6c3.5,4.2,7.6,8.9,12.5,14.1c4.9,5.2,9.1,9.1,12.8,11.7l3.6,2.2
		c2.4,1.5,5.6,2.8,9.5,4c3.9,1.2,7.3,1.5,10.2,0.9l46.7-0.7c4.6,0,8.2-0.8,10.8-2.3c2.6-1.5,4.1-3.2,4.6-5c0.5-1.8,0.5-3.9,0.1-6.2
		C430.3,339.1,429.8,337.5,429.4,336.6z"/>
</g>
</svg>
